<svg width="360" height="220" viewBox="0 0 360 220" fill="none" xmlns="http://www.w3.org/2000/svg">
  <defs>
    <linearGradient id="galaxyBackground" x1="0" y1="0" x2="1" y2="1">
      <stop offset="0%" stop-color="#07090D"/>
      <stop offset="100%" stop-color="#10131B"/>
    </linearGradient>
    <linearGradient id="galaxyUpper" x1="80" y1="86" x2="318" y2="178" gradientUnits="userSpaceOnUse">
      <stop offset="0%" stop-color="#1E232C"/>
      <stop offset="100%" stop-color="#0F1217"/>
    </linearGradient>
    <linearGradient id="galaxyMidsole" x1="42" y1="160" x2="312" y2="186" gradientUnits="userSpaceOnUse">
      <stop offset="0%" stop-color="#1D1F24"/>
      <stop offset="100%" stop-color="#0A0C0F"/>
    </linearGradient>
  </defs>
  <rect width="360" height="220" rx="18" fill="url(#galaxyBackground)"/>
  <g transform="translate(22 16)">
    <path d="M30 144C40 124 66 108 94 102C158 88 220 92 268 104C294 110 318 122 326 132C336 144 330 160 320 170C304 184 254 192 204 192C146 192 82 184 50 174C26 166 22 158 30 144Z" fill="url(#galaxyMidsole)"/>
    <path d="M50 128C60 104 112 84 174 82C228 82 280 96 308 110C318 116 324 124 324 132C324 142 312 154 286 164C248 178 198 176 144 170C104 166 58 156 50 128Z" fill="url(#galaxyUpper)"/>
    <path d="M64 124C68 120 86 112 106 110C144 106 220 116 272 134C286 138 302 148 308 154" fill="#0B0D11" opacity="0.6"/>
    <path d="M110 108C124 100 160 96 194 100C214 104 238 112 256 124C240 124 212 122 178 116C150 112 124 110 110 108Z" fill="#1B1F27"/>
    <path d="M170 120L218 134L206 150L158 134Z" fill="#11161C"/>
    <path d="M186 114L234 130L222 146L174 128Z" fill="#0D1117"/>
    <path d="M202 110L250 130L236 146L192 126Z" fill="#080B0F" opacity="0.9"/>
    <path d="M120 114C148 106 188 110 222 122" stroke="#2C333E" stroke-width="6" stroke-linecap="round"/>
    <path d="M80 150C90 164 126 176 166 180C214 184 256 176 286 160" stroke="#010101" stroke-width="8" stroke-linecap="round" opacity="0.4"/>
    <path d="M60 152C56 142 62 126 82 118" stroke="#252B34" stroke-width="4" stroke-linecap="round" opacity="0.5"/>
    <path d="M296 162C302 154 314 144 320 142" stroke="#191D24" stroke-width="6" stroke-linecap="round" opacity="0.5"/>
    <path d="M128 122L158 132" stroke="#10141A" stroke-width="10" stroke-linecap="round"/>
    <path d="M150 96C172 90 214 96 240 106" stroke="#2B313A" stroke-width="8" stroke-linecap="round" opacity="0.45"/>
    <path d="M228 148C246 140 274 126 300 124" stroke="#191D25" stroke-width="8" stroke-linecap="round" opacity="0.5"/>
  </g>
  <text x="32" y="56" fill="#E4E8ED" font-family="'Segoe UI', 'Arial', sans-serif" font-weight="700" font-size="26">Adidas Galaxy 7</text>
  <text x="32" y="86" fill="rgba(228, 232, 237, 0.72)" font-family="'Segoe UI', 'Arial', sans-serif" font-weight="500" font-size="16">O par do dia-a-dia • Tudo preto</text>
</svg>
