<svg width="360" height="220" viewBox="0 0 360 220" fill="none" xmlns="http://www.w3.org/2000/svg">
  <defs>
    <linearGradient id="novablastBackground" x1="0" y1="0" x2="1" y2="1">
      <stop offset="0%" stop-color="#0B1E20"/>
      <stop offset="100%" stop-color="#12343A"/>
    </linearGradient>
    <linearGradient id="novablastUpper" x1="40" y1="96" x2="332" y2="182" gradientUnits="userSpaceOnUse">
      <stop offset="0%" stop-color="#DFF5F4"/>
      <stop offset="100%" stop-color="#BFE5E3"/>
    </linearGradient>
    <linearGradient id="novablastMidsole" x1="42" y1="156" x2="326" y2="196" gradientUnits="userSpaceOnUse">
      <stop offset="0%" stop-color="#123C4A"/>
      <stop offset="45%" stop-color="#155265"/>
      <stop offset="70%" stop-color="#2B5E67"/>
      <stop offset="100%" stop-color="#0E2E36"/>
    </linearGradient>
    <linearGradient id="novablastBlast" x1="200" y1="162" x2="262" y2="198" gradientUnits="userSpaceOnUse">
      <stop offset="0%" stop-color="#F2A560"/>
      <stop offset="100%" stop-color="#35556B"/>
    </linearGradient>
  </defs>
  <rect width="360" height="220" rx="18" fill="url(#novablastBackground)"/>
  <g transform="translate(18 12)">
    <path d="M22 146C32 126 62 108 96 100C168 84 240 92 294 110C314 118 332 130 336 146C338 162 318 176 294 184C236 204 136 200 76 186C40 178 18 166 22 146Z" fill="url(#novablastMidsole)"/>
    <path d="M48 130C56 98 128 80 192 80C248 80 302 94 328 110C340 118 346 128 344 136C340 150 314 166 280 174C220 188 154 178 102 170C66 164 52 154 48 130Z" fill="url(#novablastUpper)"/>
    <path d="M74 116C94 102 144 90 190 92C226 94 270 106 298 118C306 122 314 130 314 134C312 142 298 150 262 160C216 174 154 168 122 162C98 158 70 146 74 116Z" fill="#E8FAFA" opacity="0.8"/>
    <path d="M124 106C154 96 202 98 238 110" stroke="#B1D5D6" stroke-width="6" stroke-linecap="round"/>
    <path d="M90 154C98 170 140 184 190 188C242 192 284 182 312 164" stroke="#07171A" stroke-width="10" stroke-linecap="round" opacity="0.35"/>
    <path d="M60 152C56 140 64 120 90 110" stroke="#89C7C7" stroke-width="4" stroke-linecap="round" opacity="0.6"/>
    <path d="M294 164C304 152 320 140 330 138" stroke="#1F4954" stroke-width="6" stroke-linecap="round" opacity="0.6"/>
    <path d="M214 150C230 146 246 142 258 146C266 150 270 160 260 168C242 180 206 186 160 186C140 186 124 184 108 180C150 176 188 158 214 150Z" fill="url(#novablastBlast)"/>
    <path d="M136 118L186 132L174 148L124 132Z" fill="#9BD1D0"/>
    <path d="M154 112L204 128L192 144L142 126Z" fill="#84C5C4"/>
    <path d="M172 108L222 126L208 142L162 124Z" fill="#6CB8B8"/>
    <path d="M250 122C264 118 286 118 300 122C306 124 308 130 302 134C290 142 270 146 252 142C244 140 238 136 236 132C240 126 244 124 250 122Z" fill="#7BBDBE"/>
    <path d="M118 112C148 104 198 108 232 120" stroke="#4D8C92" stroke-width="4" stroke-dasharray="8 10" stroke-linecap="round"/>
  </g>
  <text x="32" y="56" fill="#E2FAFA" font-family="'Segoe UI', 'Arial', sans-serif" font-weight="700" font-size="26">ASICS Novablast 5 TR</text>
  <text x="32" y="86" fill="rgba(226, 250, 250, 0.7)" font-family="'Segoe UI', 'Arial', sans-serif" font-weight="500" font-size="16">Preferido para trilhos leves • Verão 2025</text>
</svg>
